<?xml version="1.0" encoding="utf-8"?>
<!-- Generator: Adobe Illustrator 23.0.1, SVG Export Plug-In . SVG Version: 6.00 Build 0)  -->
<svg version="1.1" id="Layer_1" xmlns="http://www.w3.org/2000/svg" xmlns:xlink="http://www.w3.org/1999/xlink" x="0px" y="0px"
	 viewBox="0 0 184.7 40.8" style="enable-background:new 0 0 184.7 40.8;" xml:space="preserve">
<style type="text/css">
	.st0{display:none;}
	.st1{display:inline;fill:#636363;}
	.st2{fill:#F08C21;}
	.st3{fill:#FFFFFF;}
	.st4{enable-background:new    ;}
</style>
<!-- <g class="st0">
	<rect y="0.4" class="st1" width="184.7" height="40.4"/>
</g> -->
<g>
	<g>
		<g transform="scale(.04 0.04)">
		<!-- <g transform="rotate(16 16 16)">  -->

  <path id="OutsidePart"
        fill="#f18c21" stroke="none" stroke-width="1"
        d="M 104.78,726.00
           C 104.78,726.00 91.71,699.00 91.71,699.00
             78.67,668.58 68.42,637.83 61.51,605.42
             55.92,579.22 52.20,543.83 52.00,517.00
             51.14,399.41 94.13,288.16 173.00,201.03
             209.49,160.73 256.43,125.80 305.00,101.50
             369.09,69.43 438.94,52.36 510.60,52.23
             606.20,52.06 699.04,81.17 777.16,136.33
             777.16,136.33 805.00,157.15 805.00,157.15
             854.19,198.41 895.02,249.54 923.73,307.00
             947.01,353.58 964.41,412.01 969.52,463.91
             971.52,484.16 972.00,504.47 971.76,524.80
             971.47,549.32 967.96,573.97 963.46,598.00
             948.05,680.33 909.86,759.00 853.13,820.91
             830.61,845.50 802.62,870.71 775.00,889.33
             775.00,889.33 748.00,906.85 748.00,906.85
             744.55,908.84 738.23,911.14 737.00,915.00
             731.31,915.28 725.18,919.67 720.00,922.24
             717.26,923.61 715.00,924.00 714.00,927.00
             710.34,927.15 704.31,928.16 703.00,932.00
             697.84,932.15 693.77,934.54 689.00,936.42
             689.00,936.42 663.00,946.57 663.00,946.57
             641.30,954.39 617.99,960.37 595.28,964.42
             566.13,969.63 538.61,972.12 509.00,972.00
             434.86,971.70 357.52,951.94 292.42,916.48
             239.39,887.59 198.27,852.73 159.00,807.00
             146.38,792.30 135.17,776.26 124.69,760.00
             122.20,756.13 115.65,743.21 112.00,742.00
             111.27,736.07 107.52,731.20 104.78,726.00 Z
           M 545.00,105.54
           C 545.00,105.54 518.00,97.58 518.00,97.58
             518.00,97.58 491.00,90.00 491.00,90.00
             491.00,90.00 484.46,112.00 484.46,112.00
             484.46,112.00 478.09,136.00 478.09,136.00
             478.09,136.00 474.44,146.00 474.44,146.00
             474.44,146.00 468.33,169.00 468.33,169.00
             468.33,169.00 463.71,183.00 463.71,183.00
             463.71,183.00 458.00,202.00 458.00,202.00
             458.00,202.00 447.00,199.36 447.00,199.36
             447.00,199.36 436.00,195.88 436.00,195.88
             436.00,195.88 414.00,190.51 414.00,190.51
             414.00,190.51 394.00,184.42 394.00,184.42
             394.00,184.42 377.00,180.03 377.00,180.03
             377.00,180.03 369.00,176.92 369.00,176.92
             369.00,176.92 346.00,171.04 346.00,171.04
             337.19,168.23 328.35,164.44 319.00,164.00
             319.00,164.00 315.17,176.00 315.17,176.00
             315.17,176.00 309.98,195.00 309.98,195.00
             309.98,195.00 298.00,236.00 298.00,236.00
             298.00,236.00 342.00,248.58 342.00,248.58
             354.00,251.99 364.78,255.92 372.03,266.96
             374.15,270.18 374.43,272.40 375.29,276.01
             378.95,291.27 375.95,293.97 371.91,308.00
             371.91,308.00 366.88,327.00 366.88,327.00
             366.88,327.00 362.39,342.00 362.39,342.00
             362.39,342.00 356.33,366.00 356.33,366.00
             356.33,366.00 352.89,376.00 352.89,376.00
             352.89,376.00 347.31,398.96 347.31,398.96
             347.31,398.96 344.38,407.04 344.38,407.04
             344.38,407.04 338.85,429.00 338.85,429.00
             338.85,429.00 335.77,438.00 335.77,438.00
             335.77,438.00 329.09,464.00 329.09,464.00
             329.09,464.00 324.00,480.00 324.00,480.00
             324.00,480.00 371.00,495.34 371.00,495.34
             371.00,495.34 415.00,509.34 415.00,509.34
             415.00,509.34 441.96,517.93 441.96,517.93
             441.96,517.93 473.00,524.83 473.00,524.83
             473.00,524.83 483.00,528.11 483.00,528.11
             483.00,528.11 505.00,533.66 505.00,533.66
             505.00,533.66 514.00,536.96 514.00,536.96
             514.00,536.96 530.00,541.86 530.00,541.86
             549.94,548.78 574.12,560.15 591.00,572.76
             600.83,580.10 613.87,594.27 618.57,605.72
             618.57,605.72 620.38,613.00 620.38,613.00
             621.73,618.74 623.22,625.09 622.96,631.00
             622.78,635.08 621.64,638.10 620.63,642.00
             616.51,657.84 610.78,670.50 597.00,680.37
             579.63,692.80 558.86,696.03 538.00,696.00
             538.00,696.00 519.00,695.00 519.00,695.00
             510.46,694.90 479.89,689.55 471.00,687.34
             471.00,687.34 455.00,682.88 455.00,682.88
             455.00,682.88 439.00,679.09 439.00,679.09
             439.00,679.09 425.00,674.73 425.00,674.73
             425.00,674.73 409.04,670.76 409.04,670.76
             409.04,670.76 398.00,665.81 398.00,665.81
             398.00,665.81 363.00,653.05 363.00,653.05
             363.00,653.05 285.00,624.95 285.00,624.95
             267.49,618.54 225.29,602.30 209.00,600.00
             209.00,600.00 192.52,636.00 192.52,636.00
             192.52,636.00 182.00,659.00 182.00,659.00
             182.00,659.00 174.00,677.00 174.00,677.00
             174.00,677.00 180.00,678.00 180.00,678.00
             182.37,681.07 185.38,681.25 189.00,682.29
             194.36,683.83 207.16,688.07 212.00,688.00
             212.00,688.00 221.00,692.14 221.00,692.14
             221.00,692.14 238.00,697.04 238.00,697.04
             238.00,697.04 283.00,710.84 283.00,710.84
             283.00,710.84 310.00,718.00 310.00,718.00
             310.00,718.00 307.04,729.00 307.04,729.00
             307.04,729.00 303.89,738.00 303.89,738.00
             303.89,738.00 297.57,762.00 297.57,762.00
             297.57,762.00 294.14,772.00 294.14,772.00
             294.14,772.00 287.34,797.00 287.34,797.00
             287.34,797.00 280.13,822.00 280.13,822.00
             279.54,824.32 277.89,829.58 278.69,831.72
             279.80,834.71 288.00,836.35 291.00,837.33
             291.00,837.33 330.00,849.58 330.00,849.58
             332.71,850.37 342.51,854.25 344.53,852.93
             347.02,851.31 349.54,840.23 350.37,837.00
             350.37,837.00 359.87,804.00 359.87,804.00
             360.98,799.56 363.07,794.41 363.00,790.00
             366.11,787.44 366.42,782.77 367.37,779.00
             367.37,779.00 374.62,755.00 374.62,755.00
             375.35,752.37 376.61,746.35 378.56,744.61
             380.77,742.64 384.36,743.64 387.00,744.08
             394.02,745.25 403.41,747.03 410.00,749.46
             410.00,749.46 426.00,754.12 426.00,754.12
             428.14,754.69 431.68,755.30 432.81,757.43
             433.78,759.25 432.82,762.18 432.20,764.00
             432.20,764.00 427.71,778.00 427.71,778.00
             427.71,778.00 422.04,799.00 422.04,799.00
             422.04,799.00 416.12,818.00 416.12,818.00
             414.71,823.34 411.89,830.68 412.00,836.00
             408.89,838.56 408.58,843.23 407.63,847.00
             405.83,854.09 404.11,861.37 401.00,868.00
             401.00,868.00 437.00,880.95 437.00,880.95
             437.00,880.95 470.00,892.00 470.00,892.00
             470.00,892.00 488.46,831.00 488.46,831.00
             488.46,831.00 491.54,823.00 491.54,823.00
             491.54,823.00 498.46,798.00 498.46,798.00
             498.46,798.00 505.00,778.00 505.00,778.00
             505.00,778.00 535.00,783.19 535.00,783.19
             535.00,783.19 549.00,785.83 549.00,785.83
             549.00,785.83 568.00,787.13 568.00,787.13
             573.90,787.79 571.37,788.98 581.00,789.00
             581.00,789.00 599.00,789.00 599.00,789.00
             599.00,789.00 609.00,789.82 609.00,789.82
             609.00,789.82 627.00,788.15 627.00,788.15
             650.90,785.30 647.27,786.66 670.83,778.49
             670.83,778.49 680.00,775.51 680.00,775.51
             684.33,773.52 692.89,768.32 697.00,765.60
             722.62,748.68 736.81,728.65 749.04,701.00
             752.78,692.55 755.85,686.03 758.42,677.00
             758.42,677.00 763.18,661.91 763.18,661.91
             765.45,653.48 767.89,634.71 768.00,626.00
             768.11,616.62 766.88,601.90 764.28,593.00
             755.15,561.83 729.24,536.64 701.00,521.89
             701.00,521.89 676.00,513.58 676.00,513.58
             676.00,513.58 646.00,504.28 646.00,504.28
             646.00,504.28 556.00,476.28 556.00,476.28
             556.00,476.28 519.00,464.72 519.00,464.72
             519.00,464.72 508.00,461.96 508.00,461.96
             508.00,461.96 468.00,451.00 468.00,451.00
             468.00,451.00 475.09,426.00 475.09,426.00
             475.09,426.00 480.88,403.00 480.88,403.00
             480.88,403.00 484.09,393.00 484.09,393.00
             484.09,393.00 490.67,368.00 490.67,368.00
             490.67,368.00 494.11,358.00 494.11,358.00
             494.11,358.00 507.00,311.00 507.00,311.00
             507.00,311.00 531.00,318.58 531.00,318.58
             531.00,318.58 544.00,321.96 544.00,321.96
             544.00,321.96 552.00,324.96 552.00,324.96
             552.00,324.96 574.96,332.37 574.96,332.37
             574.96,332.37 583.04,336.20 583.04,336.20
             583.04,336.20 598.00,342.49 598.00,342.49
             608.75,347.69 624.43,358.76 632.96,367.09
             637.29,371.31 638.72,374.00 641.73,379.00
             646.10,386.26 650.41,395.36 650.75,404.00
             650.75,404.00 650.13,413.00 650.13,413.00
             649.13,433.56 641.24,448.21 624.00,459.97
             611.14,468.74 601.85,469.55 587.00,471.58
             582.37,472.21 577.16,471.35 573.00,473.00
             573.00,473.00 604.00,482.28 604.00,482.28
             604.00,482.28 673.00,503.42 673.00,503.42
             681.57,505.93 704.57,514.42 712.00,513.90
             717.47,513.52 724.12,509.79 729.00,507.22
             748.02,497.18 756.45,488.94 767.94,471.00
             767.94,471.00 773.18,463.00 773.18,463.00
             781.94,446.28 788.56,414.95 788.99,396.00
             789.18,387.55 787.36,379.22 785.66,371.00
             785.66,371.00 783.91,362.00 783.91,362.00
             778.60,345.43 764.02,324.61 751.00,313.29
             741.52,305.04 729.78,295.87 719.00,289.45
             719.00,289.45 706.09,282.69 706.09,282.69
             699.56,278.90 698.65,277.73 691.00,274.60
             691.00,274.60 660.00,261.28 660.00,261.28
             657.26,260.14 650.19,258.36 648.64,256.49
             646.10,253.44 649.56,244.57 650.58,241.00
             653.24,231.71 662.18,207.45 662.00,199.00
             665.41,196.19 667.00,186.49 668.13,182.00
             668.13,182.00 673.54,165.00 673.54,165.00
             673.54,165.00 679.00,145.00 679.00,145.00
             679.00,145.00 649.00,134.98 649.00,134.98
             649.00,134.98 630.00,128.66 630.00,128.66
             626.54,127.55 615.32,123.39 612.30,124.64
             609.77,125.68 609.23,129.63 608.63,132.00
             608.63,132.00 602.85,152.00 602.85,152.00
             602.85,152.00 597.81,170.99 597.81,170.99
             597.81,170.99 593.89,183.00 593.89,183.00
             593.89,183.00 589.11,203.00 589.11,203.00
             589.11,203.00 585.96,212.00 585.96,212.00
             585.96,212.00 580.00,233.00 580.00,233.00
             568.53,228.11 556.08,226.50 544.00,223.79
             536.29,222.06 534.40,219.79 525.00,219.00
             525.00,219.00 533.85,188.00 533.85,188.00
             533.85,188.00 557.00,109.00 557.00,109.00
             557.00,109.00 545.00,105.54 545.00,105.54 Z
           M 319.00,504.00
           C 316.15,506.34 315.99,509.53 315.13,513.00
             315.13,513.00 310.26,532.00 310.26,532.00
             310.26,532.00 302.58,560.00 302.58,560.00
             302.58,560.00 298.39,573.00 298.39,573.00
             296.69,579.21 292.91,597.46 290.25,601.83
             287.68,606.05 282.70,609.77 279.00,613.00
             279.00,613.00 314.00,625.69 314.00,625.69
             314.00,625.69 373.00,646.69 373.00,646.69
             373.00,646.69 397.00,655.31 397.00,655.31
             397.00,655.31 406.70,657.31 406.70,657.31
             406.70,657.31 410.12,651.00 410.12,651.00
             410.12,651.00 414.37,634.00 414.37,634.00
             414.37,634.00 417.56,624.00 417.56,624.00
             417.56,624.00 423.64,600.00 423.64,600.00
             423.64,600.00 428.87,582.00 428.87,582.00
             428.87,582.00 434.00,559.00 434.00,559.00
             436.99,556.54 437.21,552.68 438.00,549.00
             438.00,549.00 443.00,527.00 443.00,527.00
             443.00,527.00 382.00,507.34 382.00,507.34
             382.00,507.34 323.00,488.00 323.00,488.00
             323.00,488.00 319.00,504.00 319.00,504.00 Z" />
  <path id="InsidePart"
        fill="white" stroke="none" stroke-width="1"
        d="
           M 543.00,105.15
           C 543.00,105.15 525.00,100.58 525.00,100.58
             525.00,100.58 511.00,95.91 511.00,95.91
             511.00,95.91 492.00,91.00 492.00,91.00
             492.00,91.00 487.44,105.00 487.44,105.00
             487.44,105.00 481.56,127.00 481.56,127.00
             481.56,127.00 477.72,138.00 477.72,138.00
             477.72,138.00 471.83,160.00 471.83,160.00
             471.83,160.00 468.96,168.00 468.96,168.00
             468.96,168.00 458.00,203.00 458.00,203.00
             458.00,203.00 397.00,186.58 397.00,186.58
             397.00,186.58 356.00,174.77 356.00,174.77
             344.45,171.83 330.95,165.58 319.00,165.00
             319.00,165.00 308.75,200.00 308.75,200.00
             308.75,200.00 303.37,220.00 303.37,220.00
             303.37,220.00 299.00,236.00 299.00,236.00
             299.00,236.00 318.00,241.13 318.00,241.13
             318.00,241.13 344.00,248.56 344.00,248.56
             349.38,250.17 355.10,251.16 360.00,254.07
             363.71,256.28 369.69,262.36 372.03,266.00
             375.85,271.94 378.68,282.95 377.82,290.00
             377.82,290.00 371.37,314.00 371.37,314.00
             371.37,314.00 368.54,325.00 368.54,325.00
             368.54,325.00 365.39,334.00 365.39,334.00
             365.39,334.00 360.11,356.00 360.11,356.00
             360.11,356.00 356.67,366.00 356.67,366.00
             356.67,366.00 350.51,390.00 350.51,390.00
             350.51,390.00 341.61,422.00 341.61,422.00
             341.61,422.00 337.90,433.00 337.90,433.00
             337.90,433.00 329.91,463.00 329.91,463.00
             328.76,466.14 325.30,476.73 327.06,479.49
             328.59,481.89 337.02,483.70 340.00,484.67
             340.00,484.67 378.00,496.72 378.00,496.72
             378.00,496.72 437.00,515.58 437.00,515.58
             437.00,515.58 461.00,520.88 461.00,520.88
             461.00,520.88 484.00,527.27 484.00,527.27
             484.00,527.27 497.00,530.44 497.00,530.44
             497.00,530.44 515.00,536.15 515.00,536.15
             520.24,537.59 529.04,539.59 533.00,543.00
             535.98,543.31 546.57,547.48 550.00,548.81
             562.00,553.46 585.27,566.40 594.83,574.67
             594.83,574.67 606.57,586.01 606.57,586.01
             609.28,589.11 611.49,592.82 615.00,595.00
             615.40,599.88 617.76,602.57 619.55,607.00
             621.64,612.17 624.22,622.50 623.82,628.00
             623.39,633.88 620.68,647.46 618.63,653.00
             607.48,683.17 577.72,694.89 548.00,696.83
             548.00,696.83 536.00,696.83 536.00,696.83
             536.00,696.83 518.00,696.00 518.00,696.00
             518.00,696.00 500.00,693.27 500.00,693.27
             500.00,693.27 481.00,690.37 481.00,690.37
             481.00,690.37 471.00,687.61 471.00,687.61
             471.00,687.61 448.00,682.49 448.00,682.49
             448.00,682.49 438.91,679.43 438.91,679.43
             438.91,679.43 412.00,672.48 412.00,672.48
             412.00,672.48 390.00,663.69 390.00,663.69
             390.00,663.69 291.00,627.95 291.00,627.95
             268.29,619.64 232.55,605.55 210.00,601.00
             210.00,601.00 201.63,620.00 201.63,620.00
             201.63,620.00 195.31,632.00 195.31,632.00
             195.31,632.00 187.89,649.00 187.89,649.00
             187.89,649.00 175.00,677.00 175.00,677.00
             175.00,677.00 206.00,686.70 206.00,686.70
             206.00,686.70 228.00,693.03 228.00,693.03
             228.00,693.03 239.00,697.11 239.00,697.11
             239.00,697.11 262.00,703.44 262.00,703.44
             262.00,703.44 275.00,707.63 275.00,707.63
             275.00,707.63 301.00,714.58 301.00,714.58
             301.00,714.58 309.65,719.27 309.65,719.27
             309.65,719.27 307.69,728.00 307.69,728.00
             307.69,728.00 302.37,748.00 302.37,748.00
             302.37,748.00 297.91,762.00 297.91,762.00
             297.91,762.00 284.29,811.00 284.29,811.00
             284.29,811.00 278.00,832.00 278.00,832.00
             278.00,832.00 294.00,837.04 294.00,837.04
             294.00,837.04 303.00,840.39 303.00,840.39
             303.00,840.39 324.00,846.42 324.00,846.42
             324.00,846.42 345.00,853.00 345.00,853.00
             345.00,853.00 352.04,829.00 352.04,829.00
             352.04,829.00 358.00,807.00 358.00,807.00
             358.00,807.00 365.63,782.00 365.63,782.00
             365.63,782.00 368.46,771.00 368.46,771.00
             368.46,771.00 372.63,759.00 372.63,759.00
             373.44,755.79 375.38,746.54 377.09,744.31
             379.75,740.83 385.30,742.61 389.00,743.25
             389.00,743.25 422.00,751.72 422.00,751.72
             424.98,752.61 432.49,754.38 433.72,757.34
             434.55,759.34 432.64,763.87 432.00,766.00
             432.00,766.00 426.41,787.00 426.41,787.00
             426.41,787.00 422.91,797.00 422.91,797.00
             422.91,797.00 416.97,819.00 416.97,819.00
             416.97,819.00 413.44,829.00 413.44,829.00
             413.44,829.00 407.00,853.00 407.00,853.00
             407.00,853.00 402.00,868.00 402.00,868.00
             402.00,868.00 450.00,884.67 450.00,884.67
             452.97,885.66 465.73,890.82 467.70,890.22
             470.00,889.52 470.69,886.02 471.29,884.00
             471.29,884.00 477.85,864.00 477.85,864.00
             477.85,864.00 497.46,800.00 497.46,800.00
             497.46,800.00 501.85,786.00 501.85,786.00
             502.51,783.64 503.04,780.42 505.30,778.98
             507.44,777.72 510.67,778.54 513.00,778.98
             513.00,778.98 532.00,782.41 532.00,782.41
             539.83,784.29 548.04,784.36 556.00,785.17
             556.00,785.17 566.00,786.83 566.00,786.83
             566.00,786.83 590.00,788.00 590.00,788.00
             590.00,788.00 606.00,788.99 606.00,788.99
             606.00,788.99 626.00,786.94 626.00,786.94
             626.00,786.94 636.00,786.94 636.00,786.94
             657.30,784.09 683.31,774.62 701.00,762.54
             706.60,758.71 709.28,755.57 714.00,751.04
             730.22,735.45 732.30,731.09 742.78,712.04
             742.78,712.04 746.96,704.91 746.96,704.91
             746.96,704.91 757.01,678.00 757.01,678.00
             772.10,635.33 773.13,592.47 742.92,556.00
             734.06,545.31 712.65,528.05 700.00,522.17
             700.00,522.17 682.00,516.33 682.00,516.33
             682.00,516.33 639.00,502.98 639.00,502.98
             639.00,502.98 515.00,464.70 515.00,464.70
             515.00,464.70 508.00,462.30 508.00,462.30
             508.00,462.30 483.00,455.83 483.00,455.83
             483.00,455.83 467.00,451.00 467.00,451.00
             467.00,451.00 473.12,430.00 473.12,430.00
             473.12,430.00 486.89,378.00 486.89,378.00
             486.89,378.00 490.33,368.00 490.33,368.00
             490.33,368.00 495.87,346.00 495.87,346.00
             495.87,346.00 505.00,311.00 505.00,311.00
             515.20,311.86 531.93,317.82 542.00,321.04
             542.00,321.04 558.00,325.67 558.00,325.67
             583.78,334.08 615.04,347.16 633.90,367.04
             638.73,372.13 647.10,385.23 649.25,392.00
             650.72,396.63 651.07,404.97 651.26,410.00
             651.93,428.22 643.01,446.19 629.00,457.74
             619.33,465.71 607.10,469.19 595.00,471.39
             595.00,471.39 579.00,474.00 579.00,474.00
             579.00,474.00 610.00,483.28 610.00,483.28
             610.00,483.28 670.00,501.67 670.00,501.67
             670.00,501.67 696.00,509.67 696.00,509.67
             699.71,510.87 707.34,513.64 711.00,513.30
             715.23,512.91 723.10,509.22 727.00,507.24
             741.40,499.96 745.15,497.32 756.39,485.28
             773.41,467.05 781.77,443.30 785.27,419.00
             786.74,408.77 788.02,407.79 788.00,397.00
             787.97,376.24 782.18,354.39 770.64,337.00
             766.71,331.08 762.87,327.08 758.04,322.00
             752.52,316.20 747.23,310.56 741.00,305.46
             730.36,296.76 704.83,282.04 692.00,276.18
             692.00,276.18 660.00,262.42 660.00,262.42
             656.36,261.05 648.85,259.42 647.11,255.87
             645.94,253.47 647.19,249.46 647.91,247.00
             647.91,247.00 654.12,227.00 654.12,227.00
             654.12,227.00 660.33,207.00 660.33,207.00
             660.33,207.00 667.96,179.00 667.96,179.00
             671.42,168.18 676.47,155.38 677.00,144.00
             666.29,142.35 654.30,137.16 644.00,133.75
             644.00,133.75 628.00,129.28 628.00,129.28
             624.93,128.37 614.08,123.57 611.93,125.65
             610.97,126.59 609.55,131.43 608.95,133.00
             605.88,141.10 603.42,160.49 599.00,166.00
             599.00,166.00 594.87,184.00 594.87,184.00
             594.87,184.00 582.00,233.00 582.00,233.00
             582.00,233.00 552.00,226.51 552.00,226.51
             552.00,226.51 544.00,224.04 544.00,224.04
             544.00,224.04 523.00,219.00 523.00,219.00
             523.00,219.00 528.04,204.00 528.04,204.00
             528.04,204.00 544.72,147.00 544.72,147.00
             548.42,134.84 553.93,121.74 555.00,109.00
             555.00,109.00 543.00,105.15 543.00,105.15 Z
           M 360.00,501.28
           C 360.00,501.28 323.00,490.00 323.00,490.00
             323.00,490.00 314.12,521.00 314.12,521.00
             314.12,521.00 310.91,531.00 310.91,531.00
             310.91,531.00 304.85,555.00 304.85,555.00
             304.85,555.00 300.42,569.00 300.42,569.00
             300.42,569.00 291.39,601.00 291.39,601.00
             291.39,601.00 282.00,614.00 282.00,614.00
             282.00,614.00 328.00,629.95 328.00,629.95
             328.00,629.95 407.00,658.00 407.00,658.00
             407.00,658.00 411.39,641.01 411.39,641.01
             411.39,641.01 414.62,631.96 414.62,631.96
             414.62,631.96 420.51,608.00 420.51,608.00
             420.51,608.00 423.61,599.00 423.61,599.00
             423.61,599.00 428.71,578.00 428.71,578.00
             428.71,578.00 434.58,559.00 434.58,559.00
             434.58,559.00 438.91,541.00 438.91,541.00
             438.91,541.00 443.00,528.00 443.00,528.00
             443.00,528.00 360.00,501.28 360.00,501.28 Z" />






			</g>
		<!-- </g> -->
	</g>
	<g id="Layer_4">
		<g class="st4">
			<path class="st3" d="M62.1,10c1.5,0,2.7,0.1,3.5,0.4c0.9,0.3,1.5,0.8,1.9,1.4c0.3,0.7,0.4,1.6,0.3,2.9c-0.2,1.2-0.5,2.1-1,2.8
				c-0.5,0.6-1.4,1-2.5,1.1l0,0.1c1.4,0.1,2.3,0.6,2.7,1.4c0.4,0.8,0.6,2,0.4,3.4c-0.2,1.2-0.5,2.1-1,2.7c-0.5,0.6-1.2,1.1-2,1.3
				s-2,0.4-3.4,0.4c-1.2,0-2.2,0-3,0s-1.7,0-2.4-0.1s-1.4-0.1-2.2-0.1l0.6-2.7c0.4,0,1.2,0,2.3,0.1c1.1,0,2.4,0,3.9,0
				c0.7,0,1.3-0.1,1.8-0.2s0.8-0.4,1-0.8s0.4-0.9,0.5-1.6c0.1-0.7,0.1-1.2,0-1.6c-0.1-0.4-0.3-0.6-0.7-0.8c-0.4-0.1-0.9-0.2-1.6-0.2
				h-6.4l0.4-2.5h6.1c0.6,0,1.2-0.1,1.5-0.2s0.7-0.4,0.9-0.7c0.2-0.4,0.4-0.9,0.4-1.5c0.1-0.6,0.1-1,0-1.3c-0.1-0.3-0.3-0.5-0.7-0.6
				C63,13,62.6,12.9,62,12.9c-1,0-1.8,0-2.6,0c-0.7,0-1.4,0-2,0c-0.6,0-1.1,0-1.6,0.1l-0.1-2.7c0.7-0.1,1.3-0.1,1.9-0.1
				c0.6,0,1.3,0,2-0.1C60.4,10.1,61.2,10,62.1,10z M59.5,10.3L57,27.8h-3.8l2.5-17.5H59.5z"/>
			<path class="st3" d="M74.8,15.2L73,27.8h-3.7l1.8-12.5H74.8z M74.4,9.7c0.4,0,0.7,0.1,0.9,0.3c0.2,0.2,0.2,0.5,0.2,0.9l-0.2,1.3
				c-0.1,0.7-0.5,1.1-1.2,1.1h-1.5c-0.8,0-1.2-0.4-1.1-1.2l0.2-1.3c0.1-0.7,0.5-1.1,1.2-1.1H74.4z"/>
			<path class="st3" d="M86.3,15.2L86,17.7h-9.4l0.3-2.3l2.4-0.1H86.3z M83.3,11.8l-1.7,12.1c-0.1,0.5,0,0.8,0.1,0.9
				c0.2,0.2,0.5,0.3,1,0.3h1.7l0.2,2.6c-0.3,0.1-0.7,0.2-1.2,0.3C83,27.9,82.5,28,82.1,28s-0.8,0.1-1,0.1c-1.2,0-2.1-0.3-2.7-1
				c-0.6-0.6-0.8-1.5-0.6-2.6l1.9-12.8H83.3z"/>
			<path class="st3" d="M93.8,14.9c0.8,0,1.6,0.1,2.5,0.2s1.7,0.3,2.4,0.6L98.2,18c-0.7,0-1.5-0.1-2.1-0.1c-0.7,0-1.3,0-1.7,0
				c-0.7,0-1.4,0.1-1.8,0.3s-0.8,0.6-1.1,1.1s-0.4,1.2-0.6,2.2c-0.1,1-0.2,1.7-0.1,2.2s0.4,0.9,0.7,1s1,0.3,1.7,0.3
				c0.3,0,0.7,0,1.1,0s0.9,0,1.4-0.1s1-0.1,1.5-0.1l0.3,2.4c-0.7,0.3-1.5,0.5-2.4,0.6c-0.9,0.1-1.7,0.2-2.5,0.2
				c-1.5,0-2.7-0.2-3.6-0.7s-1.5-1.2-1.9-2.2c-0.3-1-0.4-2.3-0.2-3.9c0.2-1.6,0.6-2.8,1.1-3.7c0.5-0.9,1.2-1.6,2.2-2.1
				S92.3,14.9,93.8,14.9z"/>
			<path class="st3" d="M106.9,14.9c1.5,0,2.8,0.2,3.7,0.7c0.9,0.4,1.6,1.2,1.9,2.1c0.3,1,0.4,2.3,0.1,4c-0.2,1.6-0.6,2.8-1.1,3.8
				c-0.5,0.9-1.3,1.6-2.2,2c-1,0.4-2.2,0.6-3.8,0.6c-1.5,0-2.8-0.2-3.7-0.7c-0.9-0.4-1.6-1.2-1.9-2.1s-0.4-2.3-0.2-3.9
				c0.2-1.6,0.6-2.9,1.1-3.8c0.5-0.9,1.3-1.6,2.3-2C104.1,15.1,105.4,14.9,106.9,14.9z M106.9,17.6c-0.7,0-1.2,0.1-1.6,0.3
				c-0.4,0.2-0.7,0.6-1,1.2c-0.2,0.6-0.4,1.4-0.6,2.5c-0.1,1-0.2,1.7-0.1,2.3s0.3,0.9,0.6,1.1s0.8,0.3,1.5,0.3
				c0.7,0,1.2-0.1,1.6-0.3s0.7-0.6,1-1.2c0.2-0.6,0.4-1.4,0.6-2.4c0.1-1,0.2-1.8,0.1-2.3c-0.1-0.5-0.3-0.9-0.6-1.1
				C108,17.8,107.5,17.6,106.9,17.6z"/>
			<path class="st3" d="M119.9,15.2l-1.8,12.5h-3.7l1.8-12.5H119.9z M119.5,9.7c0.4,0,0.7,0.1,0.9,0.3s0.2,0.5,0.2,0.9l-0.2,1.3
				c-0.1,0.7-0.5,1.1-1.2,1.1h-1.5c-0.8,0-1.2-0.4-1.1-1.2l0.2-1.3c0.1-0.7,0.5-1.1,1.2-1.1H119.5z"/>
			<path class="st3" d="M126,15.2v3.3l0.3,0.4l-1.2,8.9h-3.8l1.8-12.5H126z M131.8,14.9c0.7,0,1.3,0.1,1.8,0.4
				c0.5,0.3,0.9,0.7,1.1,1.2c0.2,0.5,0.3,1.2,0.2,2l-1.3,9.3h-3.8l1.2-8.2c0.1-0.6,0.1-1-0.1-1.2c-0.1-0.2-0.5-0.3-0.9-0.3
				c-0.6,0-1.1,0.2-1.8,0.5s-1.4,0.9-2.2,1.6l-0.4-1.9c1-1.1,2-1.9,3.1-2.5S130.7,14.9,131.8,14.9z"/>
			<!-- <path class="st3" d="M143.1,10.3l-2.5,17.5h-3.9l2.5-17.5H143.1z M145.7,10c1.6,0,2.8,0.2,3.7,0.5c0.9,0.4,1.5,1,1.9,1.8
				c0.3,0.9,0.4,2,0.2,3.5c-0.2,1.5-0.5,2.6-1,3.4c-0.5,0.8-1.2,1.4-2,1.7c-0.9,0.3-2,0.5-3.5,0.5c-0.8,0-1.5,0-2.2-0.1
				c-0.7-0.1-1.4-0.2-2-0.3c-0.6-0.1-1.2-0.2-1.6-0.3c-0.4-0.1-0.7-0.2-0.9-0.3l0.2-1.9c1,0,2.1,0,3.2,0c1.1,0,2.2,0,3.2,0
				c0.7,0,1.2-0.1,1.6-0.2s0.7-0.4,0.9-0.9c0.2-0.4,0.4-1,0.5-1.9c0.1-0.7,0.1-1.2,0-1.6c-0.1-0.4-0.3-0.7-0.6-0.8
				c-0.3-0.2-0.8-0.2-1.4-0.2c-1.6,0-2.9,0-4,0c-1.1,0-1.9,0.1-2.3,0.1l-0.1-2.8c0.7-0.1,1.3-0.1,2-0.2c0.6,0,1.3-0.1,2-0.1
				C143.9,10,144.7,10,145.7,10z"/>
			<path class="st3" d="M159.7,14.9c1.5,0,2.8,0.2,3.7,0.7c0.9,0.4,1.6,1.2,1.9,2.1c0.3,1,0.4,2.3,0.1,4c-0.2,1.6-0.6,2.8-1.1,3.8
				c-0.5,0.9-1.3,1.6-2.2,2c-1,0.4-2.2,0.6-3.8,0.6c-1.5,0-2.8-0.2-3.7-0.7c-0.9-0.4-1.6-1.2-1.9-2.1s-0.4-2.3-0.2-3.9
				c0.2-1.6,0.6-2.9,1.1-3.8c0.5-0.9,1.3-1.6,2.3-2C156.9,15.1,158.1,14.9,159.7,14.9z M159.6,17.6c-0.7,0-1.2,0.1-1.6,0.3
				c-0.4,0.2-0.7,0.6-1,1.2c-0.2,0.6-0.4,1.4-0.6,2.5c-0.1,1-0.2,1.7-0.1,2.3s0.3,0.9,0.6,1.1s0.8,0.3,1.5,0.3
				c0.7,0,1.2-0.1,1.6-0.3s0.7-0.6,1-1.2c0.2-0.6,0.4-1.4,0.6-2.4c0.1-1,0.2-1.8,0.1-2.3c-0.1-0.5-0.3-0.9-0.6-1.1
				C160.7,17.8,160.3,17.6,159.6,17.6z"/> -->
			<path class="st3" d="M143.1,9.9c0.9,0,1.9,0.1,2.9,0.2c1,0.1,2,0.3,2.9,0.5l-0.4,2.6c-0.5,0-1.1,0-1.7,0s-1.2,0-1.9,0s-1.3,0-2,0
				c-0.4,0-0.8,0-1.1,0c-0.3,0-0.6,0.1-0.8,0.2s-0.4,0.3-0.5,0.5c-0.1,0.2-0.2,0.5-0.3,0.9c0,0.3,0,0.6,0,0.9
				c0.1,0.2,0.2,0.4,0.4,0.6c0.2,0.2,0.5,0.3,1,0.5l3.2,1.3c0.9,0.4,1.6,0.8,2.1,1.3c0.5,0.5,0.8,1,0.9,1.7c0.1,0.6,0.1,1.4,0,2.2
				c-0.2,1.3-0.5,2.3-1,3c-0.5,0.7-1.2,1.2-2.2,1.4c-0.9,0.3-2.2,0.4-3.7,0.4c-0.6,0-1.5,0-2.6-0.1c-1.1-0.1-2.3-0.3-3.5-0.5
				l0.4-2.7c1,0,1.9,0,2.6,0.1c0.7,0,1.3,0,1.8,0.1c0.5,0,0.9,0,1.2,0c0.7,0,1.3,0,1.8-0.1c0.4-0.1,0.8-0.3,1-0.5
				c0.2-0.2,0.4-0.6,0.4-1.1c0.1-0.4,0-0.7,0-0.9c-0.1-0.2-0.2-0.4-0.4-0.5c-0.2-0.1-0.5-0.3-0.9-0.4l-3.4-1.4
				c-0.9-0.4-1.6-0.8-2.1-1.3c-0.5-0.5-0.8-1.1-0.9-1.7c-0.1-0.6-0.2-1.3-0.1-2.1c0.1-1,0.3-1.8,0.7-2.4c0.3-0.6,0.8-1.1,1.4-1.4
				c0.6-0.3,1.3-0.6,2.1-0.7C173.3,10,M142.3,9.9,M143.1,9.9z"/>
		</g>
	</g>
	<g id="Layer_3">
	</g>
</g>
</svg>
